<svg xmlns="http://www.w3.org/2000/svg" viewBox="0 0 1200 640" width="100%" role="img" aria-label="Active-passive disaster recovery architecture" font-family="'DM Sans','Inter','Segoe UI',Helvetica,Arial,sans-serif"><defs><marker id="d04-ah-00A972" viewBox="0 0 10 10" refX="9" refY="5" markerWidth="7" markerHeight="7" orient="auto-start-reverse"><path d="M0,1 L9,5 L0,9 z" fill="#00A972"/></marker><marker id="d04-ah-1B3139" viewBox="0 0 10 10" refX="9" refY="5" markerWidth="7" markerHeight="7" orient="auto-start-reverse"><path d="M0,1 L9,5 L0,9 z" fill="#1B3139"/></marker><marker id="d04-ah-6B7280" viewBox="0 0 10 10" refX="9" refY="5" markerWidth="7" markerHeight="7" orient="auto-start-reverse"><path d="M0,1 L9,5 L0,9 z" fill="#6B7280"/></marker></defs><rect x="480" y="20" width="240" height="66" rx="10" fill="#1B3139" stroke="#0F1D22" stroke-width="1.6"/><g transform="translate(591.5,32.5) scale(0.7083)" fill="none" stroke="#FFFFFF" stroke-width="2.4" stroke-linecap="round" stroke-linejoin="round"><path d="M12 11.5a4 4 0 100-8 4 4 0 000 8zM4.5 21c0-4 3.4-6.5 7.5-6.5s7.5 2.5 7.5 6.5"/></g><text x="600" y="67" font-size="13" font-weight="700" fill="#FFFFFF" text-anchor="middle">Users / BI / APIs</text><path d="M600,86 L600,118" stroke="#1B3139" stroke-width="1.7" fill="none" stroke-linecap="round" stroke-linejoin="round" marker-end="url(#d04-ah-1B3139)"/><rect x="460" y="120" width="280" height="66" rx="10" fill="#FF3621" stroke="#CC2B1A" stroke-width="1.6"/><g transform="translate(591.5,132.5) scale(0.7083)" fill="none" stroke="#FFFFFF" stroke-width="2.4" stroke-linecap="round" stroke-linejoin="round"><path d="M12 2.5a9.5 9.5 0 100 19 9.5 9.5 0 000-19zM2.5 12h19M12 2.5c3 3 3 16 0 19M12 2.5c-3 3-3 16 0 19"/></g><text x="600" y="167" font-size="13" font-weight="700" fill="#FFFFFF" text-anchor="middle">Stable DR Endpoint URL</text><rect x="60" y="250" width="480" height="340" rx="14" fill="none" stroke="#00A972" stroke-width="1.5" stroke-dasharray="7 5"/><text x="78" y="270" font-size="10.5" font-weight="700" fill="#00A972" text-anchor="start" letter-spacing="1.3">PRIMARY REGION · ACTIVE</text><rect x="660" y="250" width="480" height="340" rx="14" fill="none" stroke="#6B7280" stroke-width="1.5" stroke-dasharray="7 5"/><text x="678" y="270" font-size="10.5" font-weight="700" fill="#6B7280" text-anchor="start" letter-spacing="1.3">SECONDARY REGION · STANDBY</text><rect x="100" y="290" width="400" height="48" rx="10" fill="#00A972" stroke="#007A52" stroke-width="1.6"/><g transform="translate(291.5,294) scale(0.7083)" fill="none" stroke="#FFFFFF" stroke-width="2.4" stroke-linecap="round" stroke-linejoin="round"><path d="M4 6c0-1.7 3.6-3 8-3s8 1.3 8 3-3.6 3-8 3-8-1.3-8-3zM4 6v12c0 1.7 3.6 3 8 3s8-1.3 8-3V6"/></g><text x="300" y="327.5" font-size="12" font-weight="700" fill="#FFFFFF" text-anchor="middle">Metastore A</text><rect x="700" y="290" width="400" height="48" rx="10" fill="#F2F2F2" stroke="#E8E8E8" stroke-width="1.6"/><g transform="translate(891.5,294) scale(0.7083)" fill="none" stroke="#1B3139" stroke-width="2.4" stroke-linecap="round" stroke-linejoin="round"><path d="M4 6c0-1.7 3.6-3 8-3s8 1.3 8 3-3.6 3-8 3-8-1.3-8-3zM4 6v12c0 1.7 3.6 3 8 3s8-1.3 8-3V6"/></g><text x="900" y="327.5" font-size="12" font-weight="700" fill="#1B3139" text-anchor="middle">Metastore B</text><rect x="100" y="348" width="400" height="48" rx="10" fill="#00A972" stroke="#007A52" stroke-width="1.6"/><g transform="translate(291.5,352) scale(0.7083)" fill="none" stroke="#FFFFFF" stroke-width="2.4" stroke-linecap="round" stroke-linejoin="round"><path d="M3 5h18v14H3zM3 9.5h18"/></g><text x="300" y="385.5" font-size="12" font-weight="700" fill="#FFFFFF" text-anchor="middle">Prod workspace</text><rect x="700" y="348" width="400" height="48" rx="10" fill="#F2F2F2" stroke="#E8E8E8" stroke-width="1.6"/><g transform="translate(891.5,352) scale(0.7083)" fill="none" stroke="#1B3139" stroke-width="2.4" stroke-linecap="round" stroke-linejoin="round"><path d="M3 5h18v14H3zM3 9.5h18"/></g><text x="900" y="385.5" font-size="12" font-weight="700" fill="#1B3139" text-anchor="middle">DR workspace</text><rect x="100" y="406" width="400" height="48" rx="10" fill="#00A972" stroke="#007A52" stroke-width="1.6"/><g transform="translate(291.5,410) scale(0.7083)" fill="none" stroke="#FFFFFF" stroke-width="2.4" stroke-linecap="round" stroke-linejoin="round"><path d="M12 11.5a4 4 0 100-8 4 4 0 000 8zM4.5 21c0-4 3.4-6.5 7.5-6.5s7.5 2.5 7.5 6.5"/></g><text x="300" y="443.5" font-size="12" font-weight="700" fill="#FFFFFF" text-anchor="middle">Consumer workspace</text><rect x="700" y="406" width="400" height="48" rx="10" fill="#F2F2F2" stroke="#E8E8E8" stroke-width="1.6"/><g transform="translate(891.5,410) scale(0.7083)" fill="none" stroke="#1B3139" stroke-width="2.4" stroke-linecap="round" stroke-linejoin="round"><path d="M12 11.5a4 4 0 100-8 4 4 0 000 8zM4.5 21c0-4 3.4-6.5 7.5-6.5s7.5 2.5 7.5 6.5"/></g><text x="900" y="443.5" font-size="12" font-weight="700" fill="#1B3139" text-anchor="middle">DR consumer workspace</text><rect x="100" y="464" width="400" height="48" rx="10" fill="#00A972" stroke="#007A52" stroke-width="1.6"/><g transform="translate(291.5,468) scale(0.7083)" fill="none" stroke="#FFFFFF" stroke-width="2.4" stroke-linecap="round" stroke-linejoin="round"><path d="M13 2.5L4.5 14H10l-1 7.5L19.5 10H13z"/></g><text x="300" y="501.5" font-size="12" font-weight="700" fill="#FFFFFF" text-anchor="middle">Jobs running</text><rect x="700" y="464" width="400" height="48" rx="10" fill="#F2F2F2" stroke="#E8E8E8" stroke-width="1.6"/><g transform="translate(891.5,468) scale(0.7083)" fill="none" stroke="#1B3139" stroke-width="2.4" stroke-linecap="round" stroke-linejoin="round"><path d="M13 2.5L4.5 14H10l-1 7.5L19.5 10H13z"/></g><text x="900" y="501.5" font-size="12" font-weight="700" fill="#1B3139" text-anchor="middle">Jobs paused</text><rect x="100" y="522" width="400" height="48" rx="10" fill="#00A972" stroke="#007A52" stroke-width="1.6"/><g transform="translate(291.5,526) scale(0.7083)" fill="none" stroke="#FFFFFF" stroke-width="2.4" stroke-linecap="round" stroke-linejoin="round"><path d="M4 9l8-4.5L20 9v11H4zM9.5 20v-6h5v6"/></g><text x="300" y="559.5" font-size="12" font-weight="700" fill="#FFFFFF" text-anchor="middle">SQL active</text><rect x="700" y="522" width="400" height="48" rx="10" fill="#F2F2F2" stroke="#E8E8E8" stroke-width="1.6"/><g transform="translate(891.5,526) scale(0.7083)" fill="none" stroke="#1B3139" stroke-width="2.4" stroke-linecap="round" stroke-linejoin="round"><path d="M4 9l8-4.5L20 9v11H4zM9.5 20v-6h5v6"/></g><text x="900" y="559.5" font-size="12" font-weight="700" fill="#1B3139" text-anchor="middle">SQL standby</text><path d="M460,153 L300,153 L300,250" stroke="#00A972" stroke-width="1.7" fill="none" stroke-linecap="round" stroke-linejoin="round" marker-end="url(#d04-ah-00A972)"/><path d="M740,153 L900,153 L900,250" stroke="#6B7280" stroke-width="1.7" fill="none" stroke-linecap="round" stroke-linejoin="round" stroke-dasharray="6 4" marker-end="url(#d04-ah-6B7280)"/><rect x="873.3" y="195.2" width="53.3" height="19.5" rx="5" fill="#FFFFFF" stroke="none" stroke-width="0" opacity="0.93"/><text x="900" y="208.2" font-size="9.5" font-weight="500" fill="#6B7280" text-anchor="middle">failover</text><path d="M540,420 L660,420" stroke="#1B3139" stroke-width="2" fill="none" stroke-linecap="round" stroke-linejoin="round" marker-end="url(#d04-ah-1B3139)"/><rect x="546.3" y="403.8" width="107.5" height="32.5" rx="5" fill="#FFFFFF" stroke="none" stroke-width="0" opacity="0.93"/><text x="600" y="416.8" font-size="9.5" font-weight="500" fill="#1B3139" text-anchor="middle">Managed DR</text><text x="600" y="429.8" font-size="9.5" font-weight="500" fill="#1B3139" text-anchor="middle">or DIY replication</text></svg>
